<svg width="196" height="24" viewBox="0 0 196 24" fill="none" xmlns="http://www.w3.org/2000/svg">
<g id="Company logo">
<path id="design agency" opacity="0.5" d="M77.44 4.18V19H75.18L75 17.66C74.6667 18.1667 74.24 18.5667 73.72 18.86C73.2133 19.1533 72.6333 19.3 71.98 19.3C70.6867 19.3 69.6933 18.8 69 17.8C68.3067 16.8 67.96 15.44 67.96 13.72C67.96 12.64 68.1333 11.68 68.48 10.84C68.8267 9.98667 69.32 9.32 69.96 8.84C70.6133 8.36 71.3667 8.12 72.22 8.12C73.2333 8.12 74.12 8.5 74.88 9.26V3.9L77.44 4.18ZM72.7 17.36C73.1533 17.36 73.5533 17.2533 73.9 17.04C74.2467 16.8133 74.5733 16.4667 74.88 16V11.16C74.5733 10.7867 74.26 10.5067 73.94 10.32C73.6333 10.1333 73.2733 10.04 72.86 10.04C72.18 10.04 71.64 10.3467 71.24 10.96C70.8533 11.56 70.66 12.4733 70.66 13.7C70.66 15.0067 70.8333 15.9467 71.18 16.52C71.5267 17.08 72.0333 17.36 72.7 17.36ZM89.1927 13.46C89.1927 13.5933 89.1727 13.94 89.1327 14.5H82.4927C82.5727 15.5267 82.8393 16.26 83.2927 16.7C83.746 17.14 84.346 17.36 85.0927 17.36C85.5593 17.36 85.9993 17.2867 86.4127 17.14C86.826 16.98 87.266 16.74 87.7327 16.42L88.7927 17.88C87.6193 18.8267 86.3127 19.3 84.8727 19.3C83.2593 19.3 82.0127 18.8067 81.1327 17.82C80.266 16.8333 79.8327 15.4867 79.8327 13.78C79.8327 12.7 80.0193 11.7333 80.3927 10.88C80.766 10.0133 81.306 9.34 82.0127 8.86C82.7193 8.36667 83.5593 8.12 84.5327 8.12C86.0127 8.12 87.1593 8.59333 87.9727 9.54C88.786 10.4733 89.1927 11.78 89.1927 13.46ZM86.6527 12.72C86.6527 10.8667 85.966 9.94 84.5927 9.94C83.966 9.94 83.4727 10.1733 83.1127 10.64C82.766 11.0933 82.5593 11.8267 82.4927 12.84H86.6527V12.72ZM94.8292 8.12C96.2559 8.12 97.5092 8.54 98.5892 9.38L97.5892 10.88C96.6826 10.3067 95.7959 10.02 94.9292 10.02C94.4226 10.02 94.0292 10.12 93.7492 10.32C93.4692 10.5067 93.3292 10.76 93.3292 11.08C93.3292 11.32 93.3892 11.52 93.5092 11.68C93.6292 11.84 93.8426 11.9933 94.1492 12.14C94.4692 12.2733 94.9359 12.4267 95.5492 12.6C96.6959 12.9067 97.5426 13.3133 98.0892 13.82C98.6492 14.3267 98.9292 15.0333 98.9292 15.94C98.9292 16.9933 98.5026 17.82 97.6492 18.42C96.7959 19.0067 95.7359 19.3 94.4692 19.3C93.6026 19.3 92.8092 19.1667 92.0892 18.9C91.3826 18.6333 90.7692 18.2667 90.2492 17.8L91.5292 16.36C92.4492 17.0533 93.4092 17.4 94.4092 17.4C94.9826 17.4 95.4359 17.2867 95.7692 17.06C96.1159 16.8333 96.2892 16.52 96.2892 16.12C96.2892 15.8133 96.2226 15.5733 96.0892 15.4C95.9692 15.2133 95.7426 15.0533 95.4092 14.92C95.0892 14.7733 94.5826 14.6 93.8892 14.4C92.8092 14.1067 92.0159 13.7 91.5092 13.18C91.0026 12.6467 90.7492 11.9867 90.7492 11.2C90.7492 10.6133 90.9159 10.0867 91.2492 9.62C91.5959 9.15333 92.0759 8.78667 92.6892 8.52C93.3159 8.25333 94.0292 8.12 94.8292 8.12ZM103.561 8.42V19H101.001V8.42H103.561ZM102.261 3.06C102.741 3.06 103.128 3.21333 103.421 3.52C103.728 3.81333 103.881 4.18 103.881 4.62C103.881 5.06 103.728 5.42667 103.421 5.72C103.128 6.01333 102.741 6.16 102.261 6.16C101.794 6.16 101.408 6.01333 101.101 5.72C100.808 5.42667 100.661 5.06 100.661 4.62C100.661 4.18 100.808 3.81333 101.101 3.52C101.408 3.21333 101.794 3.06 102.261 3.06ZM115.845 8.98C115.165 9.22 114.145 9.34 112.785 9.34C113.439 9.63333 113.919 10 114.225 10.44C114.545 10.8667 114.705 11.4067 114.705 12.06C114.705 12.7533 114.532 13.3667 114.185 13.9C113.852 14.4333 113.359 14.8533 112.705 15.16C112.065 15.4667 111.312 15.62 110.445 15.62C109.965 15.62 109.545 15.5667 109.185 15.46C108.892 15.66 108.745 15.92 108.745 16.24C108.745 16.7333 109.172 16.98 110.025 16.98H111.645C112.419 16.98 113.092 17.1067 113.665 17.36C114.252 17.6133 114.705 17.9733 115.025 18.44C115.345 18.8933 115.505 19.4067 115.505 19.98C115.505 21.0467 115.052 21.8733 114.145 22.46C113.239 23.06 111.932 23.36 110.225 23.36C108.999 23.36 108.032 23.2333 107.325 22.98C106.632 22.7267 106.139 22.36 105.845 21.88C105.552 21.4 105.405 20.7867 105.405 20.04H107.705C107.705 20.4133 107.772 20.7067 107.905 20.92C108.052 21.1333 108.305 21.2933 108.665 21.4C109.039 21.5067 109.572 21.56 110.265 21.56C111.239 21.56 111.925 21.44 112.325 21.2C112.725 20.96 112.925 20.6133 112.925 20.16C112.925 19.76 112.772 19.4467 112.465 19.22C112.159 19.0067 111.712 18.9 111.125 18.9H109.525C108.525 18.9 107.772 18.7067 107.265 18.32C106.759 17.9333 106.505 17.4467 106.505 16.86C106.505 16.4867 106.612 16.1267 106.825 15.78C107.052 15.4333 107.359 15.14 107.745 14.9C107.105 14.5667 106.632 14.16 106.325 13.68C106.032 13.1867 105.885 12.6 105.885 11.92C105.885 11.16 106.072 10.4933 106.445 9.92C106.819 9.34667 107.332 8.90667 107.985 8.6C108.652 8.28 109.412 8.12 110.265 8.12C111.385 8.14667 112.285 8.06667 112.965 7.88C113.659 7.68 114.405 7.36667 115.205 6.94L115.845 8.98ZM110.305 9.86C109.732 9.86 109.279 10.0467 108.945 10.42C108.625 10.78 108.465 11.2667 108.465 11.88C108.465 12.52 108.632 13.0267 108.965 13.4C109.299 13.7733 109.759 13.96 110.345 13.96C110.959 13.96 111.425 13.78 111.745 13.42C112.065 13.0467 112.225 12.5267 112.225 11.86C112.225 10.5267 111.585 9.86 110.305 9.86ZM123.028 8.12C123.974 8.12 124.708 8.40667 125.228 8.98C125.761 9.54 126.028 10.3267 126.028 11.34V19H123.468V11.74C123.468 11.1133 123.354 10.6733 123.128 10.42C122.914 10.1667 122.594 10.04 122.168 10.04C121.728 10.04 121.328 10.18 120.968 10.46C120.621 10.7267 120.281 11.12 119.948 11.64V19H117.388V8.42H119.608L119.808 9.8C120.674 8.68 121.748 8.12 123.028 8.12ZM141.829 16.2C141.829 16.6133 141.889 16.92 142.009 17.12C142.142 17.3067 142.349 17.4533 142.629 17.56L142.089 19.26C141.489 19.2067 140.995 19.06 140.609 18.82C140.235 18.58 139.949 18.2133 139.749 17.72C139.389 18.2533 138.935 18.6533 138.389 18.92C137.855 19.1733 137.255 19.3 136.589 19.3C135.535 19.3 134.702 19 134.089 18.4C133.475 17.8 133.169 17.0133 133.169 16.04C133.169 14.8933 133.582 14.02 134.409 13.42C135.249 12.8067 136.442 12.5 137.989 12.5H139.309V11.9C139.309 11.22 139.149 10.7467 138.829 10.48C138.522 10.2 138.022 10.06 137.329 10.06C136.555 10.06 135.622 10.2467 134.529 10.62L133.929 8.88C135.249 8.37333 136.529 8.12 137.769 8.12C140.475 8.12 141.829 9.33333 141.829 11.76V16.2ZM137.269 17.44C138.135 17.44 138.815 17.0067 139.309 16.14V14H138.249C136.595 14 135.769 14.6133 135.769 15.84C135.769 16.3467 135.895 16.74 136.149 17.02C136.402 17.3 136.775 17.44 137.269 17.44ZM153.931 8.98C153.251 9.22 152.231 9.34 150.871 9.34C151.525 9.63333 152.005 10 152.311 10.44C152.631 10.8667 152.791 11.4067 152.791 12.06C152.791 12.7533 152.618 13.3667 152.271 13.9C151.938 14.4333 151.445 14.8533 150.791 15.16C150.151 15.4667 149.398 15.62 148.531 15.62C148.051 15.62 147.631 15.5667 147.271 15.46C146.978 15.66 146.831 15.92 146.831 16.24C146.831 16.7333 147.258 16.98 148.111 16.98H149.731C150.505 16.98 151.178 17.1067 151.751 17.36C152.338 17.6133 152.791 17.9733 153.111 18.44C153.431 18.8933 153.591 19.4067 153.591 19.98C153.591 21.0467 153.138 21.8733 152.231 22.46C151.325 23.06 150.018 23.36 148.311 23.36C147.085 23.36 146.118 23.2333 145.411 22.98C144.718 22.7267 144.225 22.36 143.931 21.88C143.638 21.4 143.491 20.7867 143.491 20.04H145.791C145.791 20.4133 145.858 20.7067 145.991 20.92C146.138 21.1333 146.391 21.2933 146.751 21.4C147.125 21.5067 147.658 21.56 148.351 21.56C149.325 21.56 150.011 21.44 150.411 21.2C150.811 20.96 151.011 20.6133 151.011 20.16C151.011 19.76 150.858 19.4467 150.551 19.22C150.245 19.0067 149.798 18.9 149.211 18.9H147.611C146.611 18.9 145.858 18.7067 145.351 18.32C144.845 17.9333 144.591 17.4467 144.591 16.86C144.591 16.4867 144.698 16.1267 144.911 15.78C145.138 15.4333 145.445 15.14 145.831 14.9C145.191 14.5667 144.718 14.16 144.411 13.68C144.118 13.1867 143.971 12.6 143.971 11.92C143.971 11.16 144.158 10.4933 144.531 9.92C144.905 9.34667 145.418 8.90667 146.071 8.6C146.738 8.28 147.498 8.12 148.351 8.12C149.471 8.14667 150.371 8.06667 151.051 7.88C151.745 7.68 152.491 7.36667 153.291 6.94L153.931 8.98ZM148.391 9.86C147.818 9.86 147.365 10.0467 147.031 10.42C146.711 10.78 146.551 11.2667 146.551 11.88C146.551 12.52 146.718 13.0267 147.051 13.4C147.385 13.7733 147.845 13.96 148.431 13.96C149.045 13.96 149.511 13.78 149.831 13.42C150.151 13.0467 150.311 12.5267 150.311 11.86C150.311 10.5267 149.671 9.86 148.391 9.86ZM163.783 13.46C163.783 13.5933 163.763 13.94 163.723 14.5H157.083C157.163 15.5267 157.429 16.26 157.883 16.7C158.336 17.14 158.936 17.36 159.683 17.36C160.149 17.36 160.589 17.2867 161.003 17.14C161.416 16.98 161.856 16.74 162.323 16.42L163.383 17.88C162.209 18.8267 160.903 19.3 159.463 19.3C157.849 19.3 156.603 18.8067 155.723 17.82C154.856 16.8333 154.423 15.4867 154.423 13.78C154.423 12.7 154.609 11.7333 154.983 10.88C155.356 10.0133 155.896 9.34 156.603 8.86C157.309 8.36667 158.149 8.12 159.123 8.12C160.603 8.12 161.749 8.59333 162.563 9.54C163.376 10.4733 163.783 11.78 163.783 13.46ZM161.243 12.72C161.243 10.8667 160.556 9.94 159.183 9.94C158.556 9.94 158.063 10.1733 157.703 10.64C157.356 11.0933 157.149 11.8267 157.083 12.84H161.243V12.72ZM171.719 8.12C172.666 8.12 173.399 8.40667 173.919 8.98C174.452 9.54 174.719 10.3267 174.719 11.34V19H172.159V11.74C172.159 11.1133 172.046 10.6733 171.819 10.42C171.606 10.1667 171.286 10.04 170.859 10.04C170.419 10.04 170.019 10.18 169.659 10.46C169.312 10.7267 168.972 11.12 168.639 11.64V19H166.079V8.42H168.299L168.499 9.8C169.366 8.68 170.439 8.12 171.719 8.12ZM181.96 8.12C182.653 8.12 183.273 8.22 183.82 8.42C184.38 8.62 184.907 8.93333 185.4 9.36L184.26 10.9C183.9 10.6333 183.553 10.44 183.22 10.32C182.887 10.2 182.52 10.14 182.12 10.14C180.533 10.14 179.74 11.3467 179.74 13.76C179.74 14.9867 179.947 15.8733 180.36 16.42C180.773 16.9533 181.36 17.22 182.12 17.22C182.493 17.22 182.833 17.16 183.14 17.04C183.46 16.92 183.833 16.7267 184.26 16.46L185.4 18.08C184.4 18.8933 183.26 19.3 181.98 19.3C180.967 19.3 180.087 19.08 179.34 18.64C178.593 18.1867 178.02 17.5467 177.62 16.72C177.22 15.8933 177.02 14.92 177.02 13.8C177.02 12.68 177.22 11.6933 177.62 10.84C178.02 9.97333 178.593 9.30667 179.34 8.84C180.087 8.36 180.96 8.12 181.96 8.12ZM192.371 19.04C191.944 20.3467 191.298 21.36 190.431 22.08C189.564 22.8133 188.378 23.24 186.871 23.36L186.611 21.5C187.304 21.3933 187.858 21.24 188.271 21.04C188.698 20.8533 189.038 20.6 189.291 20.28C189.544 19.96 189.778 19.5333 189.991 19H189.111L185.751 8.42H188.471L190.771 17.3L193.171 8.42H195.811L192.371 19.04Z" fill="black"/>
<path id="pixetic" d="M7.02 8.12C8.35333 8.12 9.34 8.60667 9.98 9.58C10.62 10.5533 10.94 11.92 10.94 13.68C10.94 14.7733 10.7733 15.7467 10.44 16.6C10.12 17.44 9.64 18.1 9 18.58C8.37333 19.06 7.62667 19.3 6.76 19.3C5.64 19.3 4.75333 18.9133 4.1 18.14V23.08L1.54 23.36V8.42H3.78L3.92 9.72C4.33333 9.18667 4.80667 8.78667 5.34 8.52C5.87333 8.25333 6.43333 8.12 7.02 8.12ZM6.04 17.34C7.52 17.34 8.26 16.1267 8.26 13.7C8.26 12.4067 8.09333 11.4733 7.76 10.9C7.42667 10.3267 6.92667 10.04 6.26 10.04C5.83333 10.04 5.43333 10.1733 5.06 10.44C4.68667 10.6933 4.36667 11.04 4.1 11.48V16.24C4.59333 16.9733 5.24 17.34 6.04 17.34ZM16.0141 8.42V19H13.4541V8.42H16.0141ZM14.7141 3.06C15.1941 3.06 15.5807 3.21333 15.8741 3.52C16.1807 3.81333 16.3341 4.18 16.3341 4.62C16.3341 5.06 16.1807 5.42667 15.8741 5.72C15.5807 6.01333 15.1941 6.16 14.7141 6.16C14.2474 6.16 13.8607 6.01333 13.5541 5.72C13.2607 5.42667 13.1141 5.06 13.1141 4.62C13.1141 4.18 13.2607 3.81333 13.5541 3.52C13.8607 3.21333 14.2474 3.06 14.7141 3.06ZM24.0786 13.34L27.6186 19H24.6586L22.4786 14.8L20.3186 19H17.4986L21.0186 13.42L17.8586 8.42H20.7786L22.5786 12.02L24.3586 8.42H27.1386L24.0786 13.34ZM37.5638 13.46C37.5638 13.5933 37.5438 13.94 37.5038 14.5H30.8638C30.9438 15.5267 31.2104 16.26 31.6638 16.7C32.1171 17.14 32.7171 17.36 33.4638 17.36C33.9304 17.36 34.3704 17.2867 34.7838 17.14C35.1971 16.98 35.6371 16.74 36.1038 16.42L37.1638 17.88C35.9904 18.8267 34.6838 19.3 33.2438 19.3C31.6304 19.3 30.3838 18.8067 29.5038 17.82C28.6371 16.8333 28.2038 15.4867 28.2038 13.78C28.2038 12.7 28.3904 11.7333 28.7638 10.88C29.1371 10.0133 29.6771 9.34 30.3838 8.86C31.0904 8.36667 31.9304 8.12 32.9038 8.12C34.3838 8.12 35.5304 8.59333 36.3438 9.54C37.1571 10.4733 37.5638 11.78 37.5638 13.46ZM35.0238 12.72C35.0238 10.8667 34.3371 9.94 32.9638 9.94C32.3371 9.94 31.8438 10.1733 31.4838 10.64C31.1371 11.0933 30.9304 11.8267 30.8638 12.84H35.0238V12.72ZM45.9203 18.5C45.547 18.7667 45.127 18.9667 44.6603 19.1C44.207 19.2333 43.7403 19.3 43.2603 19.3C42.2203 19.2867 41.427 18.9933 40.8803 18.42C40.347 17.8333 40.0803 16.9733 40.0803 15.84V10.26H38.4203V8.42H40.0803V6.08L42.6403 5.78V8.42H45.1003L44.8403 10.26H42.6403V15.78C42.6403 16.3 42.727 16.6733 42.9003 16.9C43.087 17.1267 43.3736 17.24 43.7603 17.24C44.147 17.24 44.567 17.1133 45.0203 16.86L45.9203 18.5ZM49.9203 8.42V19H47.3603V8.42H49.9203ZM48.6203 3.06C49.1003 3.06 49.487 3.21333 49.7803 3.52C50.087 3.81333 50.2403 4.18 50.2403 4.62C50.2403 5.06 50.087 5.42667 49.7803 5.72C49.487 6.01333 49.1003 6.16 48.6203 6.16C48.1536 6.16 47.767 6.01333 47.4603 5.72C47.167 5.42667 47.0203 5.06 47.0203 4.62C47.0203 4.18 47.167 3.81333 47.4603 3.52C47.767 3.21333 48.1536 3.06 48.6203 3.06ZM57.2648 8.12C57.9582 8.12 58.5782 8.22 59.1248 8.42C59.6848 8.62 60.2115 8.93333 60.7048 9.36L59.5648 10.9C59.2048 10.6333 58.8582 10.44 58.5248 10.32C58.1915 10.2 57.8248 10.14 57.4248 10.14C55.8382 10.14 55.0448 11.3467 55.0448 13.76C55.0448 14.9867 55.2515 15.8733 55.6648 16.42C56.0782 16.9533 56.6648 17.22 57.4248 17.22C57.7982 17.22 58.1382 17.16 58.4448 17.04C58.7648 16.92 59.1382 16.7267 59.5648 16.46L60.7048 18.08C59.7048 18.8933 58.5648 19.3 57.2848 19.3C56.2715 19.3 55.3915 19.08 54.6448 18.64C53.8982 18.1867 53.3248 17.5467 52.9248 16.72C52.5248 15.8933 52.3248 14.92 52.3248 13.8C52.3248 12.68 52.5248 11.6933 52.9248 10.84C53.3248 9.97333 53.8982 9.30667 54.6448 8.84C55.3915 8.36 56.2648 8.12 57.2648 8.12Z" fill="black"/>
</g>
</svg>
